<mxfile host="app.diagrams.net" agent="Mozilla/5.0 (Windows NT 10.0; Win64; x64) AppleWebKit/537.36 (KHTML, like Gecko) Chrome/131.0.0.0 Safari/537.36 Edg/131.0.0.0" version="25.0.3">
  <diagram name="Página-1" id="gQY5afNj5Lv5bG0kPFcG">
    <mxGraphModel dx="1997" dy="964" grid="1" gridSize="10" guides="1" tooltips="1" connect="1" arrows="1" fold="1" page="1" pageScale="1" pageWidth="827" pageHeight="1169" math="0" shadow="0">
      <root>
        <mxCell id="0" />
        <mxCell id="1" parent="0" />
        <mxCell id="OAQtgSdpMxf-qJ30vdPD-39" value="" style="group" vertex="1" connectable="0" parent="1">
          <mxGeometry x="170" y="130" width="160" height="190" as="geometry" />
        </mxCell>
        <mxCell id="OAQtgSdpMxf-qJ30vdPD-40" value="Id_proveedores " style="swimlane;fontStyle=0;childLayout=stackLayout;horizontal=1;startSize=20;fillColor=#ffffff;horizontalStack=0;resizeParent=1;resizeParentMax=0;resizeLast=0;collapsible=0;marginBottom=0;swimlaneFillColor=#ffffff;movable=1;resizable=1;rotatable=1;deletable=1;editable=1;locked=0;connectable=1;" vertex="1" parent="OAQtgSdpMxf-qJ30vdPD-39">
          <mxGeometry y="30" width="160" height="160" as="geometry" />
        </mxCell>
        <mxCell id="OAQtgSdpMxf-qJ30vdPD-41" value="Nombre&lt;br&gt;Direccion&lt;div&gt;Responsable&lt;br&gt;Telefono&lt;br&gt;Estado&lt;/div&gt;&lt;div&gt;Fecha_inicio&lt;br&gt;Fecha_terminacion&lt;br&gt;Id_tipoMueble&lt;br&gt;&lt;/div&gt;" style="text;html=1;align=center;verticalAlign=middle;whiteSpace=wrap;rounded=0;" vertex="1" parent="OAQtgSdpMxf-qJ30vdPD-40">
          <mxGeometry y="20" width="160" height="140" as="geometry" />
        </mxCell>
        <mxCell id="OAQtgSdpMxf-qJ30vdPD-42" value="Proveedores&amp;nbsp;" style="text;html=1;align=center;verticalAlign=middle;whiteSpace=wrap;rounded=0;movable=1;resizable=1;rotatable=1;deletable=1;editable=1;locked=0;connectable=1;" vertex="1" parent="OAQtgSdpMxf-qJ30vdPD-39">
          <mxGeometry width="90" height="30" as="geometry" />
        </mxCell>
        <mxCell id="OAQtgSdpMxf-qJ30vdPD-43" value="" style="group" vertex="1" connectable="0" parent="1">
          <mxGeometry x="410" y="40" width="160" height="280" as="geometry" />
        </mxCell>
        <mxCell id="OAQtgSdpMxf-qJ30vdPD-44" value="id_mueble" style="swimlane;fontStyle=0;childLayout=stackLayout;horizontal=1;startSize=40;fillColor=#ffffff;horizontalStack=0;resizeParent=1;resizeParentMax=0;resizeLast=0;collapsible=0;marginBottom=0;swimlaneFillColor=#ffffff;movable=1;resizable=1;rotatable=1;deletable=1;editable=1;locked=0;connectable=1;" vertex="1" parent="OAQtgSdpMxf-qJ30vdPD-43">
          <mxGeometry y="30" width="160" height="250" as="geometry" />
        </mxCell>
        <mxCell id="OAQtgSdpMxf-qJ30vdPD-45" value="Nombre&lt;br&gt;Cantidad&lt;br&gt;Alto&lt;br&gt;Largo&lt;br&gt;Ancho&lt;br&gt;Imagen&lt;br&gt;Precio&lt;div&gt;Garantia&lt;/div&gt;&lt;div&gt;Estado&lt;/div&gt;&lt;div&gt;Fecha_terminacion&lt;br&gt;Id_material&lt;br&gt;Id_color&lt;br&gt;Id_tipoMueble&lt;/div&gt;" style="text;html=1;align=center;verticalAlign=middle;whiteSpace=wrap;rounded=0;" vertex="1" parent="OAQtgSdpMxf-qJ30vdPD-44">
          <mxGeometry y="40" width="160" height="210" as="geometry" />
        </mxCell>
        <mxCell id="OAQtgSdpMxf-qJ30vdPD-46" value="Mueble" style="text;html=1;align=center;verticalAlign=middle;whiteSpace=wrap;rounded=0;movable=1;resizable=1;rotatable=1;deletable=1;editable=1;locked=0;connectable=1;" vertex="1" parent="OAQtgSdpMxf-qJ30vdPD-43">
          <mxGeometry width="90" height="30" as="geometry" />
        </mxCell>
        <mxCell id="OAQtgSdpMxf-qJ30vdPD-48" value="" style="group" vertex="1" connectable="0" parent="1">
          <mxGeometry x="900" y="430" width="160" height="160" as="geometry" />
        </mxCell>
        <mxCell id="OAQtgSdpMxf-qJ30vdPD-49" value="Id_devolucion" style="swimlane;fontStyle=0;childLayout=stackLayout;horizontal=1;startSize=50;fillColor=#ffffff;horizontalStack=0;resizeParent=1;resizeParentMax=0;resizeLast=0;collapsible=0;marginBottom=0;swimlaneFillColor=#ffffff;movable=1;resizable=1;rotatable=1;deletable=1;editable=1;locked=0;connectable=1;" vertex="1" parent="OAQtgSdpMxf-qJ30vdPD-48">
          <mxGeometry y="30" width="160" height="130" as="geometry" />
        </mxCell>
        <mxCell id="OAQtgSdpMxf-qJ30vdPD-50" value="Id_venta&lt;br&gt;id_muebleDevuelto&lt;br&gt;&lt;div&gt;motivo&lt;br&gt;validación&amp;nbsp;&lt;/div&gt;" style="text;html=1;align=center;verticalAlign=middle;whiteSpace=wrap;rounded=0;" vertex="1" parent="OAQtgSdpMxf-qJ30vdPD-49">
          <mxGeometry y="50" width="160" height="80" as="geometry" />
        </mxCell>
        <mxCell id="OAQtgSdpMxf-qJ30vdPD-51" value="Devolucion" style="text;html=1;align=center;verticalAlign=middle;whiteSpace=wrap;rounded=0;movable=1;resizable=1;rotatable=1;deletable=1;editable=1;locked=0;connectable=1;" vertex="1" parent="OAQtgSdpMxf-qJ30vdPD-48">
          <mxGeometry width="90" height="30" as="geometry" />
        </mxCell>
        <mxCell id="OAQtgSdpMxf-qJ30vdPD-52" value="" style="group" vertex="1" connectable="0" parent="1">
          <mxGeometry x="667" y="320" width="160" height="150" as="geometry" />
        </mxCell>
        <mxCell id="OAQtgSdpMxf-qJ30vdPD-53" value="Id_venta" style="swimlane;fontStyle=0;childLayout=stackLayout;horizontal=1;startSize=40;fillColor=#ffffff;horizontalStack=0;resizeParent=1;resizeParentMax=0;resizeLast=0;collapsible=0;marginBottom=0;swimlaneFillColor=#ffffff;movable=1;resizable=1;rotatable=1;deletable=1;editable=1;locked=0;connectable=1;" vertex="1" parent="OAQtgSdpMxf-qJ30vdPD-52">
          <mxGeometry y="30" width="160" height="120" as="geometry" />
        </mxCell>
        <mxCell id="OAQtgSdpMxf-qJ30vdPD-54" value="Fecha&lt;br&gt;Total&lt;br&gt;Id_metodoPago&lt;br&gt;Id_empleado&lt;br&gt;Id_cliente" style="text;html=1;align=center;verticalAlign=middle;whiteSpace=wrap;rounded=0;" vertex="1" parent="OAQtgSdpMxf-qJ30vdPD-53">
          <mxGeometry y="40" width="160" height="80" as="geometry" />
        </mxCell>
        <mxCell id="OAQtgSdpMxf-qJ30vdPD-55" value="Venta" style="text;html=1;align=center;verticalAlign=middle;whiteSpace=wrap;rounded=0;movable=1;resizable=1;rotatable=1;deletable=1;editable=1;locked=0;connectable=1;" vertex="1" parent="OAQtgSdpMxf-qJ30vdPD-52">
          <mxGeometry width="90" height="30" as="geometry" />
        </mxCell>
        <mxCell id="OAQtgSdpMxf-qJ30vdPD-56" value="" style="group" vertex="1" connectable="0" parent="1">
          <mxGeometry x="1150" y="439" width="160" height="290" as="geometry" />
        </mxCell>
        <mxCell id="OAQtgSdpMxf-qJ30vdPD-57" value="Id_muebleDevuelto " style="swimlane;fontStyle=0;childLayout=stackLayout;horizontal=1;startSize=50;fillColor=#ffffff;horizontalStack=0;resizeParent=1;resizeParentMax=0;resizeLast=0;collapsible=0;marginBottom=0;swimlaneFillColor=#ffffff;movable=1;resizable=1;rotatable=1;deletable=1;editable=1;locked=0;connectable=1;" vertex="1" parent="OAQtgSdpMxf-qJ30vdPD-56">
          <mxGeometry y="30" width="160" height="260" as="geometry" />
        </mxCell>
        <mxCell id="OAQtgSdpMxf-qJ30vdPD-58" value="Id_devolucion&amp;nbsp;&lt;br&gt;&lt;div&gt;Nombre&lt;br&gt;Cantidad&lt;br&gt;Alto&lt;br&gt;Largo&lt;br&gt;Ancho&lt;br&gt;Imagen&lt;br&gt;Precio&lt;br&gt;Id_material&lt;br&gt;Id_color&lt;br&gt;Id_tipoMueble&lt;br&gt;&lt;/div&gt;" style="text;html=1;align=center;verticalAlign=middle;whiteSpace=wrap;rounded=0;" vertex="1" parent="OAQtgSdpMxf-qJ30vdPD-57">
          <mxGeometry y="50" width="160" height="210" as="geometry" />
        </mxCell>
        <mxCell id="OAQtgSdpMxf-qJ30vdPD-59" value="Mueble_devuelto&amp;nbsp;" style="text;html=1;align=center;verticalAlign=middle;whiteSpace=wrap;rounded=0;movable=1;resizable=1;rotatable=1;deletable=1;editable=1;locked=0;connectable=1;" vertex="1" parent="OAQtgSdpMxf-qJ30vdPD-56">
          <mxGeometry width="110" height="30" as="geometry" />
        </mxCell>
        <mxCell id="OAQtgSdpMxf-qJ30vdPD-60" value="Id_cliente" style="swimlane;fontStyle=0;childLayout=stackLayout;horizontal=1;startSize=40;fillColor=#ffffff;horizontalStack=0;resizeParent=1;resizeParentMax=0;resizeLast=0;collapsible=0;marginBottom=0;swimlaneFillColor=#ffffff;movable=1;resizable=1;rotatable=1;deletable=1;editable=1;locked=0;connectable=1;" vertex="1" parent="1">
          <mxGeometry x="370" y="580" width="160" height="160" as="geometry" />
        </mxCell>
        <mxCell id="OAQtgSdpMxf-qJ30vdPD-61" value="Nombre&lt;br&gt;Dirección&lt;br&gt;Teléfono&lt;br&gt;Email&lt;br&gt;Estado&lt;div&gt;Fecha_inicio&lt;br&gt;Fecha_terminacion&lt;/div&gt;" style="text;html=1;align=center;verticalAlign=middle;whiteSpace=wrap;rounded=0;" vertex="1" parent="OAQtgSdpMxf-qJ30vdPD-60">
          <mxGeometry y="40" width="160" height="120" as="geometry" />
        </mxCell>
        <mxCell id="OAQtgSdpMxf-qJ30vdPD-62" value="Cliente" style="text;html=1;align=center;verticalAlign=middle;whiteSpace=wrap;rounded=0;movable=1;resizable=1;rotatable=1;deletable=1;editable=1;locked=0;connectable=1;" vertex="1" parent="1">
          <mxGeometry x="360" y="550" width="90" height="30" as="geometry" />
        </mxCell>
        <mxCell id="OAQtgSdpMxf-qJ30vdPD-63" value="" style="group" vertex="1" connectable="0" parent="1">
          <mxGeometry x="370" y="340" width="160" height="200" as="geometry" />
        </mxCell>
        <mxCell id="OAQtgSdpMxf-qJ30vdPD-64" value="Id_empleado" style="swimlane;fontStyle=0;childLayout=stackLayout;horizontal=1;startSize=40;fillColor=#ffffff;horizontalStack=0;resizeParent=1;resizeParentMax=0;resizeLast=0;collapsible=0;marginBottom=0;swimlaneFillColor=#ffffff;movable=1;resizable=1;rotatable=1;deletable=1;editable=1;locked=0;connectable=1;" vertex="1" parent="OAQtgSdpMxf-qJ30vdPD-63">
          <mxGeometry y="30" width="160" height="170" as="geometry" />
        </mxCell>
        <mxCell id="OAQtgSdpMxf-qJ30vdPD-65" value="Nombre&lt;br&gt;Teléfono&lt;br&gt;Email&lt;div&gt;Sueldo&lt;br&gt;&lt;div&gt;Fecha_nac&lt;br&gt;Fecha_inicio&lt;br&gt;Fecha_terminacion&lt;br&gt;Id_tipoContrato&lt;br&gt;Id_rol&lt;/div&gt;&lt;/div&gt;" style="text;html=1;align=center;verticalAlign=middle;whiteSpace=wrap;rounded=0;" vertex="1" parent="OAQtgSdpMxf-qJ30vdPD-64">
          <mxGeometry y="40" width="160" height="130" as="geometry" />
        </mxCell>
        <mxCell id="OAQtgSdpMxf-qJ30vdPD-66" value="Empleado" style="text;html=1;align=center;verticalAlign=middle;whiteSpace=wrap;rounded=0;movable=1;resizable=1;rotatable=1;deletable=1;editable=1;locked=0;connectable=1;" vertex="1" parent="OAQtgSdpMxf-qJ30vdPD-63">
          <mxGeometry width="90" height="30" as="geometry" />
        </mxCell>
        <mxCell id="OAQtgSdpMxf-qJ30vdPD-67" style="edgeStyle=orthogonalEdgeStyle;rounded=0;orthogonalLoop=1;jettySize=auto;html=1;exitX=1;exitY=0.25;exitDx=0;exitDy=0;entryX=-0.008;entryY=0.093;entryDx=0;entryDy=0;entryPerimeter=0;" edge="1" parent="1" source="OAQtgSdpMxf-qJ30vdPD-41" target="OAQtgSdpMxf-qJ30vdPD-44">
          <mxGeometry relative="1" as="geometry" />
        </mxCell>
        <mxCell id="OAQtgSdpMxf-qJ30vdPD-68" style="edgeStyle=orthogonalEdgeStyle;rounded=0;orthogonalLoop=1;jettySize=auto;html=1;exitX=1;exitY=0;exitDx=0;exitDy=0;entryX=-0.017;entryY=0.181;entryDx=0;entryDy=0;entryPerimeter=0;" edge="1" parent="1" source="OAQtgSdpMxf-qJ30vdPD-45" target="OAQtgSdpMxf-qJ30vdPD-53">
          <mxGeometry relative="1" as="geometry">
            <Array as="points">
              <mxPoint x="570" y="90" />
              <mxPoint x="640" y="90" />
              <mxPoint x="640" y="372" />
            </Array>
          </mxGeometry>
        </mxCell>
        <mxCell id="OAQtgSdpMxf-qJ30vdPD-71" style="edgeStyle=orthogonalEdgeStyle;rounded=0;orthogonalLoop=1;jettySize=auto;html=1;entryX=1.028;entryY=0.156;entryDx=0;entryDy=0;entryPerimeter=0;" edge="1" parent="1" source="OAQtgSdpMxf-qJ30vdPD-54" target="OAQtgSdpMxf-qJ30vdPD-65">
          <mxGeometry relative="1" as="geometry">
            <Array as="points">
              <mxPoint x="575" y="430" />
            </Array>
          </mxGeometry>
        </mxCell>
        <mxCell id="OAQtgSdpMxf-qJ30vdPD-73" style="edgeStyle=orthogonalEdgeStyle;rounded=0;orthogonalLoop=1;jettySize=auto;html=1;entryX=1;entryY=0.25;entryDx=0;entryDy=0;" edge="1" parent="1" source="OAQtgSdpMxf-qJ30vdPD-49" target="OAQtgSdpMxf-qJ30vdPD-54">
          <mxGeometry relative="1" as="geometry" />
        </mxCell>
        <mxCell id="OAQtgSdpMxf-qJ30vdPD-74" style="edgeStyle=orthogonalEdgeStyle;rounded=0;orthogonalLoop=1;jettySize=auto;html=1;entryX=1;entryY=0.5;entryDx=0;entryDy=0;" edge="1" parent="1" source="OAQtgSdpMxf-qJ30vdPD-54" target="OAQtgSdpMxf-qJ30vdPD-60">
          <mxGeometry relative="1" as="geometry" />
        </mxCell>
        <mxCell id="OAQtgSdpMxf-qJ30vdPD-75" style="edgeStyle=orthogonalEdgeStyle;rounded=0;orthogonalLoop=1;jettySize=auto;html=1;entryX=1;entryY=0.25;entryDx=0;entryDy=0;" edge="1" parent="1" source="OAQtgSdpMxf-qJ30vdPD-57" target="OAQtgSdpMxf-qJ30vdPD-50">
          <mxGeometry relative="1" as="geometry">
            <Array as="points">
              <mxPoint x="1105" y="580" />
              <mxPoint x="1105" y="530" />
            </Array>
          </mxGeometry>
        </mxCell>
      </root>
    </mxGraphModel>
  </diagram>
</mxfile>
